# xmcd
#
# Track frame offsets:
#	150
#	12850
#	25691
#	38916
#	54851
#	65916
#	77754
#	90449
#	104050
#	115392
#	129279
#	140591
#	154397
#
# Disc length: 2257 seconds
#
# Revision: 1
# Processed by: cddbd v1.5.2PL0 Copyright (c) Steve Scherf et al.
# Submitted via: dBpowerAMP V4.0
#
DISCID=aa08cf0d
DTITLE=Ray Charles - The Shadow of Ray Charles [CD2 of 3)
DYEAR=1900
DGENRE=Blues
TTITLE0=Can Anyone Ask For More
TTITLE1=Don't Put All Your Dreams In One Basket
TTITLE2=Alone In The City
TTITLE3=St. Pete Blues
TTITLE4=I'll Do Anything But Work
TTITLE5=Can't See You Darling
TTITLE6=You'll Never Miss The Water
TTITLE7=Baby Let Me Hold Your Hand
TTITLE8=She's on The Ball
TTITLE9=Late In The Evening Blues
TTITLE10=Confession Blues
TTITLE11=Misery In My Heart
TTITLE12=I'm Wonderin'  And Wonderin
EXTD=
EXTT0=
EXTT1=
EXTT2=
EXTT3=
EXTT4=
EXTT5=
EXTT6=
EXTT7=
EXTT8=
EXTT9=
EXTT10=
EXTT11=
EXTT12=
PLAYORDER=
